<svg id="Capa_1" enable-background="new 0 0 505.032 505.032" height="512" viewBox="0 0 505.032 505.032" width="512" xmlns="http://www.w3.org/2000/svg"><path d="m469.903 307.265c.41-.419.817-.839 1.223-1.261 7.725-8.038 21.132-.659 18.399 10.148-10.812 42.747-33.518 83.102-68.104 115.812-95.437 90.26-246.857 86.823-338.324-7.457-91.447-94.259-90.577-244.8 2.611-337.988 31.784-31.784 70.248-52.833 110.871-63.14 10.789-2.738 18.352 10.612 10.324 18.322-.925.888-1.843 1.788-2.754 2.699-74.12 74.12-72.967 195.002 3.436 267.669 73.762 70.155 191.11 67.943 262.318-4.804z" fill="#fce25c"/><path d="m389.157 457.627c-94.76 62.84-224.34 51.12-306.06-33.12-91.45-94.26-90.58-244.8 2.61-337.99 31.78-31.78 70.24-52.83 110.87-63.14 1.52-.39 2.97-.45 4.33-.25-12.6 8.5-24.56 18.32-35.71 29.47-93.19 93.19-94.06 243.73-2.61 337.99 60.48 62.34 147.18 84.97 226.57 67.04z" fill="#fbd307"/><path d="m399.045 211.39 7.162 14.512c1.127 2.284 3.307 3.868 5.828 4.234l16.015 2.327c6.349.923 8.884 8.724 4.29 13.202l-11.589 11.296c-1.824 1.778-2.657 4.34-2.226 6.851l2.736 15.951c1.084 6.323-5.552 11.145-11.231 8.16l-14.325-7.531c-2.255-1.185-4.949-1.185-7.204 0l-14.325 7.531c-5.678 2.985-12.315-1.837-11.231-8.16l2.736-15.951c.431-2.511-.402-5.073-2.226-6.851l-11.589-11.296c-4.594-4.478-2.059-12.28 4.29-13.202l16.015-2.327c2.521-.366 4.7-1.95 5.828-4.234l7.162-14.512c2.841-5.752 11.045-5.752 13.884 0z" fill="#fce25c"/><path d="m377.488 266.997c0 6.16 1.15 12.06 3.25 17.48l-6.56 3.45c-5.68 2.98-12.31-1.84-11.23-8.16l2.74-15.95c.43-2.51-.4-5.08-2.23-6.85l-11.59-11.3c-4.59-4.48-2.06-12.28 4.29-13.2l16.02-2.33c2.52-.37 4.7-1.95 5.83-4.23l7.16-14.52c2.84-5.75 11.04-5.75 13.88 0l5.9 11.97c-16.25 7.8-27.46 24.41-27.46 43.64z" fill="#fbd307"/><path d="m334.548 16.685 10.464 21.202c2.401 4.864 7.041 8.236 12.409 9.016l23.398 3.4c13.518 1.964 18.916 18.576 9.134 28.111l-16.931 16.504c-3.884 3.786-5.657 9.241-4.74 14.588l3.997 23.304c2.309 13.463-11.822 23.73-23.913 17.374l-20.928-11.002c-4.801-2.524-10.537-2.524-15.338 0l-20.928 11.002c-12.091 6.357-26.222-3.91-23.913-17.374l3.997-23.304c.917-5.346-.856-10.801-4.74-14.588l-16.931-16.504c-9.782-9.535-4.384-26.147 9.134-28.111l23.398-3.4c5.368-.78 10.008-4.151 12.409-9.016l10.464-21.202c6.045-12.249 23.512-12.249 29.558 0z" fill="#fce25c"/><path d="m302.058 115.263c0 9.4 1.53 18.45 4.35 26.9l-15.24 8.02c-12.09 6.35-26.22-3.91-23.91-17.38l4-23.3c.91-5.35-.86-10.8-4.74-14.59l-16.94-16.5c-9.78-9.54-4.38-26.15 9.14-28.11l23.4-3.4c5.36-.78 10.01-4.16 12.41-9.02l10.46-21.2c6.05-12.25 23.51-12.25 29.56 0l10.46 21.2c.47.95 1.03 1.85 1.67 2.68-26.57 14.32-44.62 42.4-44.62 74.7z" fill="#fbd307"/><path d="m255.784 505.032c-40.852 0-80.825-9.958-117.133-29.36-3.653-1.952-5.032-6.496-3.079-10.15 1.952-3.653 6.493-5.033 10.149-3.08 42.838 22.893 91.132 31.795 139.659 25.744 49.494-6.171 94.752-27.496 130.882-61.667 32.344-30.586 55.164-69.384 65.992-112.2.546-2.162-.78-3.266-1.62-3.731-.854-.474-2.523-1.027-4.099.615l-1.265 1.305c-35.84 36.61-83.935 57.294-135.43 58.246-1.236.023-2.477.034-3.709.034-50.148.001-97.502-18.84-133.716-53.286-38.349-36.477-59.833-85.666-60.493-138.506-.661-52.851 19.553-102.535 56.919-139.901.95-.949 1.908-1.887 2.877-2.815 1.56-1.499 1.021-3.117.56-3.947-.391-.702-1.55-2.272-3.857-1.686-40.526 10.286-77.669 31.44-107.413 61.175-43.635 43.635-67.908 101.645-68.347 163.343-.438 61.634 22.936 119.92 65.818 164.12 10.104 10.409 21.165 19.875 32.878 28.132 3.386 2.387 4.195 7.066 1.809 10.451-2.387 3.384-7.064 4.196-10.451 1.808-12.473-8.793-24.249-18.869-35-29.946-45.642-47.043-70.521-109.076-70.053-174.672.468-65.665 26.301-127.403 72.74-173.844 31.653-31.643 71.188-54.156 114.329-65.106 8.228-2.088 16.528 1.504 20.659 8.939 4.094 7.368 2.773 16.232-3.287 22.058-.901.863-1.782 1.726-2.654 2.597-34.482 34.482-53.137 80.333-52.527 129.107.61 48.763 20.438 94.158 55.833 127.825 34.228 32.557 79.273 49.992 126.81 49.123 47.533-.879 91.92-19.963 124.982-53.736l1.208-1.247c5.827-6.068 14.745-7.413 22.153-3.304 7.384 4.094 10.957 12.343 8.89 20.525-11.528 45.583-35.813 86.879-70.229 119.423-38.467 36.382-86.646 59.084-139.332 65.654-10.508 1.309-21.013 1.96-31.453 1.96z"/><path d="m356.054 159.604c-3.809 0-7.638-.918-11.176-2.776l-20.934-11.012c-2.616-1.374-5.744-1.372-8.362.003l-20.913 11.007c-8.157 4.279-17.837 3.575-25.274-1.833-7.433-5.405-11.085-14.391-9.53-23.452l4-23.301c.5-2.91-.468-5.884-2.59-7.956l-16.924-16.494c-6.589-6.427-8.912-15.852-6.066-24.598 2.843-8.739 10.26-14.987 19.355-16.305l23.397-3.4c2.924-.425 5.452-2.264 6.764-4.919l10.459-21.197c4.073-8.25 12.315-13.371 21.51-13.371h.008c9.193.003 17.431 5.126 21.495 13.371l10.468 21.196c1.312 2.656 3.836 4.494 6.755 4.919l23.398 3.4c9.098 1.319 16.517 7.569 19.36 16.312 2.845 8.745.521 18.167-6.062 24.589l-16.933 16.502c-1.219 1.187-2.067 2.678-2.458 4.317-.961 4.029-5.007 6.516-9.034 5.558-4.029-.96-6.518-5.005-5.558-9.034 1.051-4.409 3.327-8.415 6.584-11.586l16.927-16.497c2.502-2.44 3.351-5.884 2.27-9.209-1.081-3.323-3.792-5.606-7.251-6.108l-23.402-3.4c-7.805-1.136-14.551-6.041-18.046-13.122l-10.47-21.199c-1.547-3.137-4.555-5.007-8.049-5.009-.001 0-.002 0-.003 0-3.498 0-6.511 1.872-8.06 5.009l-10.459 21.198c-3.499 7.084-10.249 11.989-18.058 13.124l-23.399 3.4c-3.458.501-6.166 2.782-7.246 6.102-1.082 3.327-.232 6.773 2.274 9.218l16.928 16.498c5.657 5.526 8.233 13.461 6.897 21.232l-4 23.298c-.591 3.445.743 6.729 3.568 8.783 2.832 2.059 6.373 2.315 9.475.687l20.912-11.006c6.993-3.671 15.334-3.671 22.319-.003l20.935 11.013c3.093 1.624 6.628 1.367 9.456-.688 2.827-2.055 4.162-5.34 3.57-8.787-.008-.048-.016-.096-.022-.145l-.03-.2c-.62-4.095 2.197-7.918 6.292-8.538 4.091-.62 7.919 2.197 8.538 6.293l.021.135c1.52 9.036-2.135 17.987-9.549 23.375-4.204 3.053-9.124 4.606-14.077 4.606z"/><path d="m413.647 296.33c-2.422 0-4.856-.584-7.106-1.767l-14.324-7.531c-.069-.036-.152-.037-.224 0l-14.324 7.531c-5.174 2.719-11.324 2.275-16.05-1.16-4.728-3.435-7.052-9.146-6.064-14.906l2.737-15.951c.013-.077-.014-.157-.07-.213l-11.589-11.296c-4.185-4.079-5.662-10.065-3.856-15.622 1.807-5.558 6.521-9.532 12.304-10.373l16.016-2.327c.078-.011.146-.061.182-.132l7.161-14.511c2.586-5.24 7.822-8.495 13.665-8.496 5.844 0 11.081 3.255 13.668 8.495v.001l7.162 14.512c.035.071.103.12.181.131l16.015 2.327c5.783.841 10.497 4.815 12.304 10.373 1.806 5.558.328 11.544-3.856 15.622l-11.589 11.296c-.057.055-.082.135-.069.212l2.736 15.951c.987 5.759-1.335 11.47-6.063 14.905-2.675 1.943-5.801 2.929-8.947 2.929zm-21.543-24.326c2.437 0 4.872.584 7.093 1.751l14.324 7.531c.104.054.13.071.253-.018.12-.088.115-.119.096-.235l-2.735-15.951c-.849-4.944.79-9.987 4.382-13.489l11.589-11.297c.084-.082.107-.104.061-.246s-.077-.147-.193-.164l-16.015-2.327c-4.966-.721-9.256-3.838-11.477-8.338l-7.161-14.511c-.052-.105-.066-.134-.216-.134-.148 0-.163.028-.215.134l-7.162 14.513c-2.222 4.5-6.512 7.616-11.476 8.337l-16.016 2.327c-.116.017-.147.021-.193.164-.047.142-.023.164.061.246l11.589 11.296c3.593 3.502 5.231 8.545 4.383 13.49l-2.736 15.951c-.02.115-.024.147.097.235.123.089.151.072.253.019l14.324-7.531c2.219-1.169 4.654-1.753 7.09-1.753z"/></svg>